<svg width="175" height="86" viewBox="0 0 175 86" fill="none" xmlns="http://www.w3.org/2000/svg">
<path fill-rule="evenodd" clip-rule="evenodd" d="M61.082 70.3753H64.0639C65.359 70.3753 66.2818 70.0515 66.8775 69.404C67.4732 68.7564 67.7776 67.7268 67.7776 66.312V62.294C67.7776 60.8856 67.5024 59.8496 66.9552 59.1729C66.408 58.4962 65.5241 58.1563 64.3165 58.1563H61.0788L61.082 70.3753ZM57.7148 85.3107V55.0934H64.3359C66.6433 55.0934 68.3549 55.7355 69.4709 57.0198C70.5868 58.3041 71.1437 60.128 71.1415 62.4915V66.1242C71.1415 70.9937 68.7834 73.4273 64.0672 73.4252H61.082V85.2977L57.7148 85.3107ZM77.6881 76.3326H84.212L80.8999 59.1211L77.6881 76.3326ZM72.8542 85.3107L78.6335 55.0934H83.5386L89.3179 85.3107H85.9507L84.7851 79.2239H77.1409L76.0045 85.3107H72.8542ZM91.976 85.3107V55.0934H95.3432V69.6986L103.373 55.0934H106.769L99.1345 68.8697L107.041 85.3107H103.583L97.1077 72.1787L95.3367 75.1735V85.3107H91.976ZM108.669 58.1563V55.0934H123.171V58.1563H117.605V85.3107H114.248V58.1563H108.669ZM128.675 78.1878C128.675 79.5897 128.979 80.6711 129.575 81.4255C130.171 82.1799 131.084 82.5651 132.282 82.5651C134.684 82.5651 135.885 81.1114 135.885 78.204V62.2163C135.885 60.8273 135.591 59.7557 134.995 58.9786C134.399 58.2016 133.496 57.8422 132.282 57.8422C131.068 57.8422 130.181 58.2242 129.575 58.9786C128.97 59.733 128.675 60.8144 128.675 62.2163V78.1878ZM125.395 78.0324V62.4009C125.395 60.0266 125.978 58.1638 127.144 56.8126C128.309 55.4614 130.022 54.7869 132.282 54.7891C134.548 54.7891 136.297 55.4657 137.462 56.8126C138.628 58.1595 139.24 60.0276 139.24 62.4009V78.0324C139.24 80.3765 138.65 82.2414 137.462 83.585C136.274 84.9286 134.548 85.6215 132.282 85.6215C130.016 85.6215 128.325 84.9448 127.15 83.585C125.975 82.2252 125.395 80.3668 125.395 78.0324ZM145.793 70.385H148.771C150.05 70.385 150.986 70.0612 151.585 69.4137C152.184 68.7661 152.485 67.7366 152.485 66.3217V62.294C152.485 60.8856 152.21 59.8496 151.663 59.1729C151.115 58.4962 150.232 58.1563 149.024 58.1563H145.786L145.793 70.385ZM142.416 85.3107V55.0934H149.034C151.345 55.0934 153.058 55.7355 154.172 57.0198C155.286 58.3041 155.846 60.128 155.852 62.4915V66.1242C155.852 70.9937 153.494 73.4273 148.778 73.4252H145.793V85.2977L142.416 85.3107ZM162.389 76.3326H168.913L165.611 59.1211L162.389 76.3326ZM157.552 85.3107L163.325 55.0934H168.23L173.999 85.3107H170.632L169.467 79.2239H161.842L160.705 85.3107H157.552Z" fill="white"/>
<path d="M61.082 70.3753H64.0639C65.359 70.3753 66.2818 70.0515 66.8775 69.404C67.4732 68.7564 67.7776 67.7268 67.7776 66.312V62.294C67.7776 60.8856 67.5024 59.8496 66.9552 59.1729C66.408 58.4962 65.5241 58.1563 64.3165 58.1563H61.0788L61.082 70.3753ZM57.7148 85.3107V55.0934H64.3359C66.6433 55.0934 68.3549 55.7355 69.4709 57.0198C70.5868 58.3041 71.1437 60.128 71.1415 62.4915V66.1242C71.1415 70.9937 68.7834 73.4273 64.0672 73.4252H61.082V85.2977L57.7148 85.3107ZM77.6881 76.3326H84.212L80.8999 59.1211L77.6881 76.3326ZM72.8542 85.3107L78.6335 55.0934H83.5386L89.3179 85.3107H85.9507L84.7851 79.2239H77.1409L76.0045 85.3107H72.8542ZM91.976 85.3107V55.0934H95.3432V69.6986L103.373 55.0934H106.769L99.1345 68.8697L107.041 85.3107H103.583L97.1077 72.1787L95.3367 75.1735V85.3107H91.976ZM108.669 58.1563V55.0934H123.171V58.1563H117.605V85.3107H114.248V58.1563H108.669ZM128.675 78.1878C128.675 79.5897 128.979 80.6711 129.575 81.4255C130.171 82.1799 131.084 82.5651 132.282 82.5651C134.684 82.5651 135.885 81.1114 135.885 78.204V62.2163C135.885 60.8273 135.591 59.7557 134.995 58.9786C134.399 58.2016 133.496 57.8422 132.282 57.8422C131.068 57.8422 130.181 58.2242 129.575 58.9786C128.97 59.733 128.675 60.8144 128.675 62.2163V78.1878ZM125.395 78.0324V62.4009C125.395 60.0266 125.978 58.1638 127.144 56.8126C128.309 55.4614 130.022 54.7869 132.282 54.7891C134.548 54.7891 136.297 55.4657 137.462 56.8126C138.628 58.1595 139.24 60.0276 139.24 62.4009V78.0324C139.24 80.3765 138.65 82.2414 137.462 83.585C136.274 84.9286 134.548 85.6215 132.282 85.6215C130.016 85.6215 128.325 84.9448 127.15 83.585C125.975 82.2252 125.395 80.3668 125.395 78.0324ZM145.793 70.385H148.771C150.05 70.385 150.986 70.0612 151.585 69.4137C152.184 68.7661 152.485 67.7366 152.485 66.3217V62.294C152.485 60.8856 152.21 59.8496 151.663 59.1729C151.115 58.4962 150.232 58.1563 149.024 58.1563H145.786L145.793 70.385ZM142.416 85.3107V55.0934H149.034C151.345 55.0934 153.058 55.7355 154.172 57.0198C155.286 58.3041 155.846 60.128 155.852 62.4915V66.1242C155.852 70.9937 153.494 73.4273 148.778 73.4252H145.793V85.2977L142.416 85.3107ZM162.389 76.3326H168.913L165.611 59.1211L162.389 76.3326ZM157.552 85.3107L163.325 55.0934H168.23L173.999 85.3107H170.632L169.467 79.2239H161.842L160.705 85.3107H157.552Z" stroke="white" stroke-width="0.0288286" stroke-miterlimit="22.93"/>
<path d="M1 50.8641V1.0459H8.72187L16.9423 40.9018L24.8423 1.0459H32.5285V50.8641H27.3321V10.7946L19.4095 50.7929H14.1061L5.84033 11.1993V50.8641H1Z" fill="white"/>
<path d="M1 50.8641V1.0459H8.72187L16.9423 40.9018L24.8423 1.0459H32.5285V50.8641H27.3321V10.7946L19.4095 50.7929H14.1061L5.84033 11.1993V50.8641H1Z" stroke="white" stroke-width="1.27999" stroke-miterlimit="22.93"/>
<path d="M125.498 31.2284V1.01107H137.931V4.07715H128.865V14.3503H136.247V17.4164H128.865V28.172H137.931V31.2348L125.498 31.2284ZM107.827 31.2284V1.01107H110.851V23.5389L113.619 15.2439L118.382 0.998115H122.073V31.2284H119.052V7.2695L115.814 17.3355L111.369 31.2284H107.827ZM90.1878 31.2284V1.01107H93.5518V15.6162L101.581 1.01107H104.978L97.3463 14.7906L105.253 31.2284H101.792L95.3163 18.0996L93.5453 21.0912V31.2284H90.1878ZM73.5364 23.9403V8.32175C73.5364 5.96148 74.1062 4.11276 75.2362 2.74646C76.3661 1.38016 78.0497 0.709961 80.2934 0.709961C82.5372 0.709961 84.2434 1.38664 85.3798 2.73675C86.5163 4.08686 87.0926 5.95501 87.0926 8.30556V11.0123H83.9423V8.12749C83.9423 5.22653 82.7552 3.77497 80.3809 3.77281C79.1926 3.77281 78.3023 4.15485 77.7098 4.90923C77.1173 5.66361 76.8194 6.745 76.8194 8.14692V24.1055C76.8194 25.4944 77.114 26.5661 77.7098 27.3431C78.3055 28.1202 79.1926 28.4796 80.3809 28.4796C82.7552 28.4796 83.9423 27.0258 83.9423 24.1184V20.1846H87.0926V23.9403C87.0926 26.2995 86.5217 28.1558 85.3798 29.5091C84.238 30.8625 82.5426 31.537 80.2934 31.5327C78.0487 31.5327 76.3629 30.8582 75.2362 29.5091C74.1095 28.1601 73.5429 26.3038 73.5364 23.9403ZM56.1986 31.2284V1.01107H59.5658V14.6093H66.9801V1.01107H70.3473V31.2284H66.9801V17.6301H59.5658V31.2284H56.1986ZM38.5273 31.2284V1.01107H41.5513V23.5389L44.3163 15.2439L49.079 0.998115H52.7699V31.2284H49.7491V7.2695L46.5115 17.3355L42.0694 31.2284H38.5273Z" fill="white"/>
<path d="M125.498 31.2284V1.01107H137.931V4.07715H128.865V14.3503H136.247V17.4164H128.865V28.172H137.931V31.2348L125.498 31.2284ZM107.827 31.2284V1.01107H110.851V23.5389L113.619 15.2439L118.382 0.998115H122.073V31.2284H119.052V7.2695L115.814 17.3355L111.369 31.2284H107.827ZM90.1878 31.2284V1.01107H93.5518V15.6162L101.581 1.01107H104.978L97.3463 14.7906L105.253 31.2284H101.792L95.3163 18.0996L93.5453 21.0912V31.2284H90.1878ZM73.5364 23.9403V8.32175C73.5364 5.96148 74.1062 4.11276 75.2362 2.74646C76.3661 1.38016 78.0497 0.709961 80.2934 0.709961C82.5372 0.709961 84.2434 1.38664 85.3798 2.73675C86.5163 4.08686 87.0926 5.95501 87.0926 8.30556V11.0123H83.9423V8.12749C83.9423 5.22653 82.7552 3.77497 80.3809 3.77281C79.1926 3.77281 78.3023 4.15485 77.7098 4.90923C77.1173 5.66361 76.8194 6.745 76.8194 8.14692V24.1055C76.8194 25.4944 77.114 26.5661 77.7098 27.3431C78.3055 28.1202 79.1926 28.4796 80.3809 28.4796C82.7552 28.4796 83.9423 27.0258 83.9423 24.1184V20.1846H87.0926V23.9403C87.0926 26.2995 86.5217 28.1558 85.3798 29.5091C84.238 30.8625 82.5426 31.537 80.2934 31.5327C78.0487 31.5327 76.3629 30.8582 75.2362 29.5091C74.1095 28.1601 73.5429 26.3038 73.5364 23.9403ZM56.1986 31.2284V1.01107H59.5658V14.6093H66.9801V1.01107H70.3473V31.2284H66.9801V17.6301H59.5658V31.2284H56.1986ZM38.5273 31.2284V1.01107H41.5513V23.5389L44.3163 15.2439L49.079 0.998115H52.7699V31.2284H49.7491V7.2695L46.5115 17.3355L42.0694 31.2284H38.5273Z" stroke="white" stroke-width="0.0288286" stroke-miterlimit="22.93"/>
<path fill-rule="evenodd" clip-rule="evenodd" d="M36.6641 34.7354H142.695V39.961H51.3923V84.5957H45.8429V39.961H36.6641V34.7354Z" fill="white"/>
<path d="M36.6641 34.7354H142.695V39.961H51.3923V84.5957H45.8429V39.961H36.6641V34.7354Z" stroke="white" stroke-width="1.27999" stroke-miterlimit="22.93"/>
</svg>
