<svg width="106" height="53" viewBox="0 0 106 53" fill="none" xmlns="http://www.w3.org/2000/svg">
<path fill-rule="evenodd" clip-rule="evenodd" d="M37.2772 43.049H39.0777C39.8596 43.049 40.4167 42.8535 40.7764 42.4625C41.1361 42.0715 41.3199 41.4499 41.3199 40.5956V38.1696C41.3199 37.3192 41.1537 36.6937 40.8234 36.2851C40.493 35.8765 39.9593 35.6713 39.2301 35.6713H37.2753L37.2772 43.049ZM35.2441 52.0668V33.8219H39.2419C40.635 33.8219 41.6685 34.2097 42.3423 34.9851C43.0161 35.7605 43.3523 36.8618 43.351 38.2888V40.4822C43.351 43.4223 41.9272 44.8918 39.0796 44.8905H37.2772V52.059L35.2441 52.0668ZM47.3038 46.6459H51.2429L49.243 36.2538L47.3038 46.6459ZM44.3851 52.0668L47.8746 33.8219H50.8362L54.3257 52.0668H52.2926L51.5889 48.3916H46.9734L46.2872 52.0668H44.3851ZM55.9306 52.0668V33.8219H57.9637V42.6404L62.8118 33.8219H64.8625L60.2529 42.1399L65.0267 52.0668H62.9389L59.0291 44.1378L57.9598 45.9461V52.0668H55.9306ZM66.01 35.6713V33.8219H74.7659V35.6713H71.4054V52.0668H69.3782V35.6713H66.01ZM78.0892 47.7661C78.0892 48.6125 78.2729 49.2655 78.6326 49.721C78.9923 50.1764 79.5436 50.4091 80.2669 50.4091C81.7174 50.4091 82.4427 49.5313 82.4427 47.7759V38.1227C82.4427 37.284 82.2648 36.637 81.9051 36.1678C81.5454 35.6986 81 35.4816 80.2669 35.4816C79.5338 35.4816 78.9982 35.7123 78.6326 36.1678C78.2671 36.6233 78.0892 37.2762 78.0892 38.1227V47.7661ZM76.1089 47.6722V38.2341C76.1089 36.8005 76.4608 35.6758 77.1645 34.86C77.8683 34.0441 78.9024 33.6369 80.2669 33.6382C81.6353 33.6382 82.691 34.0468 83.3947 34.86C84.0985 35.6732 84.4679 36.8012 84.4679 38.2341V47.6722C84.4679 49.0876 84.1121 50.2136 83.3947 51.0249C82.6773 51.8361 81.6353 52.2545 80.2669 52.2545C78.8985 52.2545 77.878 51.8459 77.1684 51.0249C76.4588 50.2038 76.1089 49.0817 76.1089 47.6722ZM88.4246 43.0548H90.2231C90.9953 43.0548 91.5602 42.8593 91.9219 42.4684C92.2835 42.0774 92.4653 41.4557 92.4653 40.6015V38.1696C92.4653 37.3192 92.2992 36.6937 91.9688 36.2851C91.6384 35.8765 91.1047 35.6713 90.3756 35.6713H88.4207L88.4246 43.0548ZM86.3857 52.0668V33.8219H90.3814C91.7772 33.8219 92.8113 34.2097 93.4838 34.9851C94.1563 35.7605 94.4945 36.8618 94.4984 38.2888V40.4822C94.4984 43.4223 93.0746 44.8918 90.227 44.8905H88.4246V52.059L86.3857 52.0668ZM98.4453 46.6459H102.384L100.39 36.2538L98.4453 46.6459ZM95.5247 52.0668L99.0103 33.8219H101.972L105.455 52.0668H103.422L102.719 48.3916H98.1149L97.4288 52.0668H95.5247Z" fill="#962933"/>
<path d="M37.2772 43.049H39.0777C39.8596 43.049 40.4167 42.8535 40.7764 42.4625C41.1361 42.0715 41.3199 41.4499 41.3199 40.5956V38.1696C41.3199 37.3192 41.1537 36.6937 40.8234 36.2851C40.493 35.8765 39.9593 35.6713 39.2301 35.6713H37.2753L37.2772 43.049ZM35.2441 52.0668V33.8219H39.2419C40.635 33.8219 41.6685 34.2097 42.3423 34.9851C43.0161 35.7605 43.3523 36.8618 43.351 38.2888V40.4822C43.351 43.4223 41.9272 44.8918 39.0796 44.8905H37.2772V52.059L35.2441 52.0668ZM47.3038 46.6459H51.2429L49.243 36.2538L47.3038 46.6459ZM44.3851 52.0668L47.8746 33.8219H50.8362L54.3257 52.0668H52.2926L51.5889 48.3916H46.9734L46.2872 52.0668H44.3851ZM55.9306 52.0668V33.8219H57.9637V42.6404L62.8118 33.8219H64.8625L60.2529 42.1399L65.0267 52.0668H62.9389L59.0291 44.1378L57.9598 45.9461V52.0668H55.9306ZM66.01 35.6713V33.8219H74.7659V35.6713H71.4054V52.0668H69.3782V35.6713H66.01ZM78.0892 47.7661C78.0892 48.6125 78.2729 49.2655 78.6326 49.721C78.9923 50.1764 79.5436 50.4091 80.2669 50.4091C81.7174 50.4091 82.4427 49.5313 82.4427 47.7759V38.1227C82.4427 37.284 82.2648 36.637 81.9051 36.1678C81.5454 35.6986 81 35.4816 80.2669 35.4816C79.5338 35.4816 78.9982 35.7123 78.6326 36.1678C78.2671 36.6233 78.0892 37.2762 78.0892 38.1227V47.7661ZM76.1089 47.6722V38.2341C76.1089 36.8005 76.4608 35.6758 77.1645 34.86C77.8683 34.0441 78.9024 33.6369 80.2669 33.6382C81.6353 33.6382 82.691 34.0468 83.3947 34.86C84.0985 35.6732 84.4679 36.8012 84.4679 38.2341V47.6722C84.4679 49.0876 84.1121 50.2136 83.3947 51.0249C82.6773 51.8361 81.6353 52.2545 80.2669 52.2545C78.8985 52.2545 77.878 51.8459 77.1684 51.0249C76.4588 50.2038 76.1089 49.0817 76.1089 47.6722ZM88.4246 43.0548H90.2231C90.9953 43.0548 91.5602 42.8593 91.9219 42.4684C92.2835 42.0774 92.4653 41.4557 92.4653 40.6015V38.1696C92.4653 37.3192 92.2992 36.6937 91.9688 36.2851C91.6384 35.8765 91.1047 35.6713 90.3756 35.6713H88.4207L88.4246 43.0548ZM86.3857 52.0668V33.8219H90.3814C91.7772 33.8219 92.8113 34.2097 93.4838 34.9851C94.1563 35.7605 94.4945 36.8618 94.4984 38.2888V40.4822C94.4984 43.4223 93.0746 44.8918 90.227 44.8905H88.4246V52.059L86.3857 52.0668ZM98.4453 46.6459H102.384L100.39 36.2538L98.4453 46.6459ZM95.5247 52.0668L99.0103 33.8219H101.972L105.455 52.0668H103.422L102.719 48.3916H98.1149L97.4288 52.0668H95.5247Z" stroke="#962933" stroke-width="0.0288286" stroke-miterlimit="22.93"/>
<path d="M1 31.2691V1.18945H5.66238L10.6258 25.254L15.3957 1.18945H20.0366V31.2691H16.899V7.07559L12.1154 31.2261H8.91334L3.92254 7.31995V31.2691H1Z" fill="#962933"/>
<path d="M1 31.2691V1.18945H5.66238L10.6258 25.254L15.3957 1.18945H20.0366V31.2691H16.899V7.07559L12.1154 31.2261H8.91334L3.92254 7.31995V31.2691H1Z" stroke="#962933" stroke-width="1.27999" stroke-miterlimit="22.93"/>
<path d="M76.1701 19.4125V1.16764H83.6768V3.01891H78.2032V9.22174H82.6603V11.073H78.2032V17.5671H83.6768V19.4164L76.1701 19.4125ZM65.5004 19.4125V1.16764H67.3262V14.7697L68.9977 9.76128L71.8733 1.15982H74.1018V19.4125H72.2779V4.94642L70.3231 11.0241L67.639 19.4125H65.5004ZM54.8502 19.4125V1.16764H56.8813V9.98609L61.7294 1.16764H63.7801L59.1725 9.4876L63.9463 19.4125H61.8565L57.9467 11.4855L56.8774 13.2918V19.4125H54.8502ZM44.7963 15.0121V5.58175C44.7963 4.15665 45.1403 3.04042 45.8226 2.21546C46.5048 1.3905 47.5214 0.98584 48.8761 0.98584C50.2308 0.98584 51.2611 1.39441 51.9472 2.20959C52.6334 3.02478 52.9814 4.15274 52.9814 5.57198V7.20626H51.0793V5.46446C51.0793 3.71289 50.3625 2.83646 48.9289 2.83515C48.2115 2.83515 47.6739 3.06583 47.3161 3.52131C46.9584 3.9768 46.7785 4.62973 46.7785 5.47619V15.1118C46.7785 15.9504 46.9564 16.5975 47.3161 17.0667C47.6758 17.5358 48.2115 17.7528 48.9289 17.7528C50.3625 17.7528 51.0793 16.8751 51.0793 15.1196V12.7444H52.9814V15.0121C52.9814 16.4365 52.6366 17.5573 51.9472 18.3745C51.2578 19.1916 50.2341 19.5989 48.8761 19.5963C47.5207 19.5963 46.5029 19.189 45.8226 18.3745C45.1423 17.5599 44.8002 16.4391 44.7963 15.0121ZM34.3279 19.4125V1.16764H36.361V9.37812H40.8377V1.16764H42.8707V19.4125H40.8377V11.202H36.361V19.4125H34.3279ZM23.6582 19.4125V1.16764H25.4841V14.7697L27.1535 9.76128L30.0291 1.15982H32.2577V19.4125H30.4338V4.94642L28.4789 11.0241L25.7968 19.4125H23.6582Z" fill="#962933"/>
<path d="M76.1701 19.4125V1.16764H83.6768V3.01891H78.2032V9.22173H82.6603V11.073H78.2032V17.5671H83.6768V19.4164L76.1701 19.4125ZM65.5004 19.4125V1.16764H67.3262V14.7697L68.9977 9.76128L71.8733 1.15982H74.1018V19.4125H72.2779V4.94642L70.3231 11.0241L67.639 19.4125H65.5004ZM54.8502 19.4125V1.16764H56.8813V9.98609L61.7294 1.16764H63.7801L59.1725 9.4876L63.9463 19.4125H61.8565L57.9467 11.4855L56.8774 13.2918V19.4125H54.8502ZM44.7963 15.0121V5.58175C44.7963 4.15665 45.1403 3.04041 45.8226 2.21546C46.5048 1.3905 47.5214 0.98584 48.8761 0.98584C50.2308 0.98584 51.2611 1.39441 51.9472 2.20959C52.6334 3.02478 52.9814 4.15274 52.9814 5.57198V7.20626H51.0793V5.46446C51.0793 3.71289 50.3625 2.83646 48.9289 2.83515C48.2115 2.83515 47.6739 3.06583 47.3161 3.52131C46.9584 3.9768 46.7785 4.62973 46.7785 5.47619V15.1118C46.7785 15.9504 46.9564 16.5975 47.3161 17.0667C47.6758 17.5358 48.2115 17.7528 48.9289 17.7528C50.3625 17.7528 51.0793 16.8751 51.0793 15.1196V12.7444H52.9814V15.0121C52.9814 16.4365 52.6366 17.5573 51.9472 18.3745C51.2578 19.1916 50.2341 19.5989 48.8761 19.5963C47.5207 19.5963 46.5029 19.189 45.8226 18.3745C45.1423 17.5599 44.8002 16.4391 44.7963 15.0121ZM34.3279 19.4125V1.16764H36.361V9.37812H40.8377V1.16764H42.8707V19.4125H40.8377V11.202H36.361V19.4125H34.3279ZM23.6582 19.4125V1.16764H25.4841V14.7697L27.1535 9.76128L30.0291 1.15982H32.2577V19.4125H30.4338V4.94642L28.4789 11.0241L25.7968 19.4125H23.6582Z" stroke="#962933" stroke-width="0.0288286" stroke-miterlimit="22.93"/>
<path fill-rule="evenodd" clip-rule="evenodd" d="M22.5332 21.5298H86.5535V24.685H31.4259V51.6349H28.0753V24.685H22.5332V21.5298Z" fill="#962933"/>
<path d="M22.5332 21.5298H86.5535V24.685H31.4259V51.6349H28.0753V24.685H22.5332V21.5298Z" stroke="#962933" stroke-width="1.27999" stroke-miterlimit="22.93"/>
</svg>
