<svg width="26" height="26" viewBox="0 0 26 26" fill="none" xmlns="http://www.w3.org/2000/svg">
<path d="M22.6004 0.400391H3.40039C1.74439 0.400391 0.400391 1.74439 0.400391 3.40039V22.6004C0.400391 24.2564 1.74439 25.6004 3.40039 25.6004H22.6004C24.2564 25.6004 25.6004 24.2564 25.6004 22.6004V3.40039C25.6004 1.74439 24.2564 0.400391 22.6004 0.400391ZM20.6324 17.8004L18.3944 17.7944C18.3944 17.7944 18.3464 17.8004 18.2684 17.8004C18.0884 17.8004 17.7164 17.7524 17.2784 17.4524C16.4924 16.9064 15.7424 15.5504 15.1484 15.5504C15.1064 15.5504 15.0704 15.5564 15.0344 15.5684C14.5184 15.7304 14.3624 16.2464 14.3624 16.8764C14.3624 17.0984 14.2064 17.2004 13.7864 17.2004H12.6284C11.3324 17.2004 10.0784 17.1704 8.66839 15.6284C6.59239 13.3544 4.64839 9.31039 4.64839 9.31039C4.64839 9.31039 4.54039 9.07639 4.65439 8.93839C4.76239 8.81239 5.01439 8.80039 5.11039 8.80039C5.13439 8.80039 5.14639 8.80039 5.14639 8.80039H7.54639C7.54639 8.80039 7.76839 8.84239 7.93039 8.96239C8.06839 9.06439 8.14039 9.25039 8.14039 9.25039C8.14039 9.25039 8.54839 10.0424 9.05839 10.9364C9.91639 12.4124 10.3784 12.9044 10.7084 12.9044C10.7624 12.9044 10.8164 12.8924 10.8704 12.8624C11.3624 12.5924 11.2184 10.4084 11.2184 10.4084C11.2184 10.4084 11.2244 9.61639 10.9664 9.26839C10.7684 8.99239 10.3904 8.91439 10.2224 8.89039C10.0904 8.87239 10.3064 8.56039 10.5944 8.41639C10.9664 8.23639 11.5844 8.20039 12.3284 8.20039H12.6884C13.3904 8.21239 13.4084 8.28439 13.6844 8.35039C14.5124 8.54839 14.2304 9.32239 14.2304 11.1764C14.2304 11.7704 14.1224 12.6044 14.5484 12.8864C14.5784 12.9044 14.6204 12.9164 14.6744 12.9164C14.9504 12.9164 15.5444 12.5624 16.4924 10.9604C17.0204 10.0484 17.4284 9.14239 17.4284 9.14239C17.4284 9.14239 17.5184 8.98039 17.6564 8.89639C17.7884 8.81839 17.7884 8.81839 17.9624 8.81839H17.9804C18.1724 8.81839 20.0804 8.80039 20.5004 8.80039H20.5484C20.9504 8.80039 21.3164 8.80639 21.3824 9.05239C21.4784 9.42439 21.0884 10.0904 20.0624 11.4704C18.3704 13.7324 18.1784 13.5644 19.5824 14.8724C20.9264 16.1204 21.2024 16.7264 21.2504 16.8044C21.8084 17.7284 20.6324 17.8004 20.6324 17.8004Z" fill="#FEFCFF"/>
</svg>
