<svg width="26" height="26" viewBox="0 0 26 26" fill="none" xmlns="http://www.w3.org/2000/svg">
<path d="M22.6004 0.399902H3.40039C1.74439 0.399902 0.400391 1.7439 0.400391 3.3999V22.5999C0.400391 24.2559 1.74439 25.5999 3.40039 25.5999H22.6004C24.2564 25.5999 25.6004 24.2559 25.6004 22.5999V3.3999C25.6004 1.7439 24.2564 0.399902 22.6004 0.399902ZM20.6324 17.7999L18.3944 17.7939C18.3944 17.7939 18.3464 17.7999 18.2684 17.7999C18.0884 17.7999 17.7164 17.7519 17.2784 17.4519C16.4924 16.9059 15.7424 15.5499 15.1484 15.5499C15.1064 15.5499 15.0704 15.5559 15.0344 15.5679C14.5184 15.7299 14.3624 16.2459 14.3624 16.8759C14.3624 17.0979 14.2064 17.1999 13.7864 17.1999H12.6284C11.3324 17.1999 10.0784 17.1699 8.66839 15.6279C6.59239 13.3539 4.64839 9.3099 4.64839 9.3099C4.64839 9.3099 4.54039 9.0759 4.65439 8.9379C4.76239 8.8119 5.01439 8.7999 5.11039 8.7999C5.13439 8.7999 5.14639 8.7999 5.14639 8.7999H7.54639C7.54639 8.7999 7.76839 8.8419 7.93039 8.9619C8.06839 9.0639 8.14039 9.2499 8.14039 9.2499C8.14039 9.2499 8.54839 10.0419 9.05839 10.9359C9.91639 12.4119 10.3784 12.9039 10.7084 12.9039C10.7624 12.9039 10.8164 12.8919 10.8704 12.8619C11.3624 12.5919 11.2184 10.4079 11.2184 10.4079C11.2184 10.4079 11.2244 9.6159 10.9664 9.2679C10.7684 8.9919 10.3904 8.9139 10.2224 8.8899C10.0904 8.8719 10.3064 8.5599 10.5944 8.4159C10.9664 8.2359 11.5844 8.1999 12.3284 8.1999H12.6884C13.3904 8.2119 13.4084 8.2839 13.6844 8.3499C14.5124 8.5479 14.2304 9.3219 14.2304 11.1759C14.2304 11.7699 14.1224 12.6039 14.5484 12.8859C14.5784 12.9039 14.6204 12.9159 14.6744 12.9159C14.9504 12.9159 15.5444 12.5619 16.4924 10.9599C17.0204 10.0479 17.4284 9.1419 17.4284 9.1419C17.4284 9.1419 17.5184 8.9799 17.6564 8.8959C17.7884 8.8179 17.7884 8.8179 17.9624 8.8179H17.9804C18.1724 8.8179 20.0804 8.7999 20.5004 8.7999H20.5484C20.9504 8.7999 21.3164 8.8059 21.3824 9.0519C21.4784 9.4239 21.0884 10.0899 20.0624 11.4699C18.3704 13.7319 18.1784 13.5639 19.5824 14.8719C20.9264 16.1199 21.2024 16.7259 21.2504 16.8039C21.8084 17.7279 20.6324 17.7999 20.6324 17.7999Z" fill="#0D2537"/>
</svg>
