<svg width="26" height="26" viewBox="0 0 26 26" fill="none" xmlns="http://www.w3.org/2000/svg">
<path d="M3.40039 0.400391C1.74439 0.400391 0.400391 1.74439 0.400391 3.40039V22.6004C0.400391 24.2564 1.74439 25.6004 3.40039 25.6004H22.6004C24.2564 25.6004 25.6004 24.2564 25.6004 22.6004V3.40039C25.6004 1.74439 24.2564 0.400391 22.6004 0.400391H3.40039ZM13.0004 3.40039C15.6524 3.40039 17.8004 5.54839 17.8004 8.20039C17.8004 10.8524 15.6524 13.0004 13.0004 13.0004C10.3484 13.0004 8.20039 10.8524 8.20039 8.20039C8.20039 5.54839 10.3484 3.40039 13.0004 3.40039ZM13.0004 5.80039C12.3639 5.80039 11.7534 6.05325 11.3033 6.50333C10.8532 6.95342 10.6004 7.56387 10.6004 8.20039C10.6004 8.83691 10.8532 9.44736 11.3033 9.89745C11.7534 10.3475 12.3639 10.6004 13.0004 10.6004C13.6369 10.6004 14.2474 10.3475 14.6974 9.89745C15.1475 9.44736 15.4004 8.83691 15.4004 8.20039C15.4004 7.56387 15.1475 6.95342 14.6974 6.50333C14.2474 6.05325 13.6369 5.80039 13.0004 5.80039ZM17.8004 13.8945C18.1784 13.8945 18.5508 14.0742 18.7848 14.4102C19.1628 14.9502 19.0308 15.7009 18.4848 16.0789C17.5848 16.7089 16.5944 17.1643 15.5504 17.4523L18.6465 20.5543C19.1205 21.0223 19.1205 21.7785 18.6465 22.2465C18.4125 22.4805 18.1064 22.6004 17.8004 22.6004C17.4944 22.6004 17.1883 22.4805 16.9543 22.2465L13.0004 18.2984L9.04648 22.2465C8.81248 22.4805 8.50639 22.6004 8.20039 22.6004C7.89439 22.6004 7.5883 22.4805 7.3543 22.2465C6.8803 21.7785 6.8803 21.0223 7.3543 20.5543L10.4504 17.4523C9.41239 17.1643 8.42187 16.7148 7.52187 16.0848C6.98187 15.7068 6.84387 14.962 7.22187 14.416C7.45587 14.08 7.82811 13.9004 8.21211 13.9004C8.44611 13.9004 8.68648 13.972 8.89648 14.116C10.1025 14.956 11.5244 15.4004 13.0004 15.4004C14.4824 15.4004 15.904 14.9562 17.116 14.1102C17.32 13.9662 17.5604 13.8945 17.8004 13.8945Z" fill="#FEFCFF"/>
</svg>
