<svg width="26" height="26" viewBox="0 0 26 26" fill="none" xmlns="http://www.w3.org/2000/svg">
<path d="M3.40039 0.399902C1.74439 0.399902 0.400391 1.7439 0.400391 3.3999V22.5999C0.400391 24.2559 1.74439 25.5999 3.40039 25.5999H22.6004C24.2564 25.5999 25.6004 24.2559 25.6004 22.5999V3.3999C25.6004 1.7439 24.2564 0.399902 22.6004 0.399902H3.40039ZM13.0004 3.3999C15.6524 3.3999 17.8004 5.5479 17.8004 8.1999C17.8004 10.8519 15.6524 12.9999 13.0004 12.9999C10.3484 12.9999 8.20039 10.8519 8.20039 8.1999C8.20039 5.5479 10.3484 3.3999 13.0004 3.3999ZM13.0004 5.7999C12.3639 5.7999 11.7534 6.05276 11.3033 6.50285C10.8532 6.95293 10.6004 7.56338 10.6004 8.1999C10.6004 8.83642 10.8532 9.44687 11.3033 9.89696C11.7534 10.347 12.3639 10.5999 13.0004 10.5999C13.6369 10.5999 14.2474 10.347 14.6974 9.89696C15.1475 9.44687 15.4004 8.83642 15.4004 8.1999C15.4004 7.56338 15.1475 6.95293 14.6974 6.50285C14.2474 6.05276 13.6369 5.7999 13.0004 5.7999ZM17.8004 13.894C18.1784 13.894 18.5508 14.0737 18.7848 14.4097C19.1628 14.9497 19.0308 15.7004 18.4848 16.0784C17.5848 16.7084 16.5944 17.1639 15.5504 17.4519L18.6465 20.5538C19.1205 21.0218 19.1205 21.778 18.6465 22.246C18.4125 22.48 18.1064 22.5999 17.8004 22.5999C17.4944 22.5999 17.1883 22.48 16.9543 22.246L13.0004 18.2979L9.04648 22.246C8.81248 22.48 8.50639 22.5999 8.20039 22.5999C7.89439 22.5999 7.5883 22.48 7.3543 22.246C6.8803 21.778 6.8803 21.0218 7.3543 20.5538L10.4504 17.4519C9.41239 17.1639 8.42187 16.7143 7.52187 16.0843C6.98187 15.7063 6.84387 14.9615 7.22187 14.4155C7.45587 14.0795 7.82811 13.8999 8.21211 13.8999C8.44611 13.8999 8.68648 13.9715 8.89648 14.1155C10.1025 14.9555 11.5244 15.3999 13.0004 15.3999C14.4824 15.3999 15.904 14.9557 17.116 14.1097C17.32 13.9657 17.5604 13.894 17.8004 13.894Z" fill="#0D2537"/>
</svg>
